inDegrees=yes
name=ik_S53_A01_T02
DataType=double
version=3
OpenSimVersion=4.3-2021-08-27-4bc7ad9
endheader
time	pelvis_tilt	pelvis_list	pelvis_rotation	pelvis_tx	pelvis_ty	pelvis_tz	hip_flexion_r	hip_adduction_r	hip_rotation_r	knee_angle_r	knee_angle_r_beta	ankle_angle_r	subtalar_angle_r	mtp_angle_r	hip_flexion_l	hip_adduction_l	hip_rotation_l	knee_angle_l	knee_angle_l_beta	ankle_angle_l	subtalar_angle_l	mtp_angle_l	lumbar_extension	lumbar_bending	lumbar_rotation	arm_flex_r	arm_add_r	arm_rot_r	elbow_flex_r	pro_sup_r	wrist_flex_r	wrist_dev_r	arm_flex_l	arm_add_l	arm_rot_l	elbow_flex_l	pro_sup_l	wrist_flex_l	wrist_dev_l
0	0	0	0	0	0.9399999999999999	0	0	0	0	0	0	0	0	0	0	0	0	0	0	0	0	0	0	0	0	0	0	0	0	89.99999999963507	0	0	0	0	0	0	89.99999999869995	0	0
0.02	-0.3000145588527536	0.3558001114905793	-89.4308833360808	0	0.9399999999999999	0	-2.511232596385292	-2.825642217196421	-10.04641387792859	-1.069512584729808	-0.01866651599504997	0	0	0	-2.079296918107284	-2.830798394056607	-5.196516238856848	-1.194218789731732	-0.02084304987000057	0	0	0	0	0	0	1.933901161350593	-1.933901161350593	0.3443449547559772	9.557885712989911	89.65565506511112	0	0	1.933901161350593	-1.933901161350593	0.3443449547559772	9.557885712989911	89.65565506424062	0	0
0.04	-0.2894540390859368	0.3584287912445411	-89.41680247174723	0	0.9399999999999999	0	-2.509048625877746	-2.838701052166925	-10.06612102740181	-1.039822531641768	-0.01814832681357178	0	0	0	-2.099205180637896	-2.812959146022298	-5.241298700314078	-1.205424735943084	-0.02103863052719005	0	0	0	0	0	0	2.106129443550187	-2.106129443550187	0.3759844017157251	9.972503612289998	89.62401562000959	0	0	2.106129443550187	-2.106129443550187	0.3759844017157251	9.972503612289998	89.62401561914503	0	0
0.06	-0.2739423691141804	0.3532729247125017	-89.40878599449674	0	0.9399999999999999	0	-2.528767918213022	-2.844656965958124	-10.06248572042199	-1.021662469415693	-0.01783137393535971	0	0	0	-2.138942314384201	-2.790088684892123	-5.314781901442268	-1.233537274626433	-0.02152928688830876	0	0	0	0	0	0	2.273419790198758	-2.273419790198758	0.4066522848536007	10.37684665136438	89.59334773867205	0	0	2.273419790198758	-2.273419790198758	0.4066522848536007	10.37684665136438	89.59334773781322	0	0
0.08	-0.2651126666538978	0.37348018812868	-89.39385761682244	0	0.9399999999999999	0	-2.531270572451024	-2.857654768552281	-10.06439490967016	-1.019366707901638	-0.01779130533809889	0	0	0	-2.125808032297206	-2.760046234486242	-5.372207422572111	-1.244499626000293	-0.02172061601354314	0	0	0	0	0	0	2.462469378870149	-2.462469378870149	0.4413713848533081	10.90200782038705	89.55862864071192	0	0	2.462469378870149	-2.462469378870149	0.4413713848533081	10.90200782038705	89.55862863985959	0	0
0.1	-0.2507208762349267	0.3775902762286957	-89.38663131734688	0	0.9399999999999999	0	-2.540256390322778	-2.87675923106105	-10.05856187695599	-1.029180701749208	-0.01796259184350944	0	0	0	-2.114772180092279	-2.731732286687121	-5.414161192000376	-1.226879655244876	-0.02141308950975601	0	0	0	0	0	0	2.635470322446761	-2.635470322446761	0.4729857849332887	11.34287470537288	89.52701424248669	0	0	2.635470322446761	-2.635470322446761	0.4729857849332887	11.34287470537288	89.52701424164027	0	0
0.12	-0.2358414505921723	0.3682804023235617	-89.38033915464086	0	0.9399999999999999	0	-2.581747964587348	-2.898384320284777	-10.05739183744196	-1.080778246604907	-0.01886313888718686	0	0	0	-2.151434537196865	-2.693719815053044	-5.429239718550616	-1.289131674869965	-0.02249959221822994	0	0	0	0	0	0	2.813281136167503	-2.813281136167503	0.5055274739040917	11.84300228566568	89.49447255542616	0	0	2.813281136167503	-2.813281136167503	0.5055274739040917	11.84300228566568	89.49447255458581	0	0
0.14	-0.2431193325996609	0.3791565566366355	-89.3832535294559	0	0.9399999999999999	0	-2.578723222360167	-2.919503437703947	-10.03580689520847	-1.126548000262144	-0.01966197178633235	0	0	0	-2.135938274159555	-2.698077939993655	-5.450436956291633	-1.266817491523693	-0.0221101362489438	0	0	0	0	0	0	3.238808307443207	-3.238808307443207	0.5838395042322793	13.24827780326294	89.41616052970264	0	0	3.238808307443207	-3.238808307443207	0.5838395042322793	13.24827780326294	89.41616052887694	0	0
0.16	-0.2385390859976241	0.3633530922215579	-89.37808206264678	0	0.9399999999999999	0	-2.590921877465674	-2.924882303735666	-10.07377706328018	-0.9901545324530245	-0.01728145669485032	0	0	0	-2.114965494266493	-2.67376297939128	-5.455288599485407	-1.116903727321085	-0.01949364746954988	0	0	0	0	0	0	3.503145251934	-3.503145251934	0.632980588349347	14.34136497699455	89.36701944848411	0	0	3.503145251934	-3.503145251934	0.632980588349347	14.34136497699455	89.36701944766754	0	0
0.18	-0.2639353847280593	0.3717242011471939	-89.39340268260933	0	0.9399999999999999	0	-2.622950019018548	-2.938058360018285	-10.04321050629698	-1.007293667730263	-0.01758059103638284	0	0	0	-2.110895727709683	-2.708493085040758	-5.479448013468422	-1.099963028888716	-0.01919797650431759	0	0	0	0	0	0	3.604172456104343	-3.604172456104343	0.6511778196782985	14.62073578921589	89.34882221821935	0	0	3.604172456104343	-3.604172456104343	0.6511778196782985	14.62073578921589	89.34882221740618	0	0
0.2	-0.2797113872446698	0.3822946109393315	-89.39976702553228	0	0.9399999999999999	0	-2.63299567334054	-2.939052046206095	-10.01679554239338	-0.9835660656429778	-0.01716646625635664	0	0	0	-2.084673255621232	-2.687243297569233	-5.421124412830452	-1.074905829912534	-0.01876064588085586	0	0	0	0	0	0	3.779871662438847	-3.779871662438847	0.6830185048635219	15.17222465086027	89.3169815348995	0	0	3.779871662438847	-3.779871662438847	0.6830185048635219	15.17222465086027	89.31698153409225	0	0
0.22	-0.2747998584195321	0.4402928328473306	-89.40773099272754	0	0.9399999999999999	0	-2.534015577398649	-2.983529922262781	-10.03832512599125	-0.7750765259746254	-0.01352763733317656	0	0	0	-1.967995691222369	-2.703300104152181	-5.441784483937512	-0.8473427298585794	-0.01478892052886908	0	0	0	0	0	0	3.89791899229776	-3.89791899229776	0.7044224687928192	15.58075894495798	89.29557757222459	0	0	3.89791899229776	-3.89791899229776	0.7044224687928192	15.58075894495798	89.29557757142146	0	0
0.24	-0.2831025395842904	0.3841514578372593	-89.38478089806596	0	0.9399999999999999	0	-2.655304014561024	-2.960584935324752	-10.0546795010925	-0.9737989864772683	-0.01699599856661207	0	0	0	-2.064015978806413	-2.66530770344829	-5.347671097824395	-0.9566453797773299	-0.01669661165110599	0	0	0	0	0	0	3.994755626249748	-3.994755626249748	0.7220791886635107	15.89901528018134	89.27792085339001	0	0	3.994755626249748	-3.994755626249748	0.7220791886635107	15.89901528018134	89.27792085259027	0	0
0.26	-0.2802614611877627	0.4056542198431302	-89.38908281190179	0	0.9399999999999999	0	-2.655825729516978	-2.984104821296876	-10.03957212121907	-0.979027645633631	-0.01708725588435515	0	0	0	-2.031205669071887	-2.666271251422337	-5.326059436258135	-0.9449949469325737	-0.0164932732386825	0	0	0	0	0	0	4.085580476542019	-4.085580476542019	0.7383141865387114	16.15395349622558	89.26168585646266	0	0	4.085580476542019	-4.085580476542019	0.7383141865387114	16.15395349622558	89.261685855666	0	0
0.28	-0.2912250996483712	0.4150359475340045	-89.39555961272416	0	0.9399999999999999	0	-2.696042239626528	-2.98737709372955	-10.04010667909587	-0.9982923362443806	-0.01742348816489077	0	0	0	-2.02775693066283	-2.659198555359491	-5.317480165717265	-0.9119067065559785	-0.01591577450041958	0	0	0	0	0	0	4.176198285892969	-4.176198285892968	0.7545873080950073	16.42733327937886	89.24541273585764	0	0	4.176198285892969	-4.176198285892968	0.7545873080950073	16.42733327937886	89.24541273506404	0	0
